<svg width="48" height="47" viewBox="0 0 48 47" fill="none" xmlns="http://www.w3.org/2000/svg">
<path d="M40.5341 9.60618C34.1233 4.94246 25.6024 3.88089 18.5241 5.28744C10.605 -3.12249 1.73083 0.745746 0 1.85777C0 1.85777 6.08999 7.55554 5.10082 12.5459C-2.10916 20.6384 1.31833 29.6484 5.10082 33.9029C6.08999 38.8932 0 44.591 0 44.591C1.71416 45.7067 10.5641 49.563 18.5241 41.1962C25.5866 42.5936 34.1074 41.5412 40.5341 36.8692C50.4724 29.8832 50.5049 16.6279 40.5341 9.60526V9.60618ZM24.5149 36.8242C22.0365 36.8321 19.5679 36.4813 17.1725 35.781L15.525 37.5326C14.6098 38.5097 13.5852 39.3542 12.4758 40.0456C11.1299 40.7918 9.66768 41.2504 8.16665 41.3971C8.24998 41.2338 8.32331 41.0705 8.39748 40.9164C10.0458 37.5521 10.4903 34.5338 9.73081 31.8614C7.01998 29.5117 5.39749 26.5086 5.39749 23.2248C5.39749 15.7012 13.9591 9.60618 24.5149 9.60618C35.0708 9.60618 43.6324 15.7012 43.6324 23.2248C43.6324 30.7485 35.0708 36.8242 24.5149 36.8242ZM15.3433 26.4637C14.5865 26.4754 13.8563 26.1564 13.3127 25.5765C12.7691 24.9966 12.4565 24.2031 12.4433 23.3698C12.385 19.2052 18.0958 19.1144 18.1533 23.2698V23.3166C18.1568 23.7266 18.0869 24.1333 17.9475 24.5135C17.8082 24.8937 17.6021 25.2399 17.3411 25.5324C17.0802 25.8248 16.7694 26.0578 16.4266 26.2179C16.0838 26.378 15.7157 26.4621 15.3433 26.4655V26.4637ZM21.4908 23.3698C21.425 19.2052 27.1358 19.1052 27.2016 23.2606V23.3166C27.2341 27.4527 21.5566 27.4977 21.4908 23.3698ZM33.4391 26.4637C32.6822 26.4755 31.9519 26.1565 31.4082 25.5766C30.8644 24.9967 30.5516 24.2031 30.5383 23.3698C30.4808 19.2052 36.1916 19.1144 36.2491 23.2698V23.3166C36.2538 23.7269 36.1847 24.1342 36.0458 24.515C35.9069 24.8958 35.7009 25.2426 35.4397 25.5353C35.1784 25.8281 34.8672 26.061 34.5238 26.2206C34.1805 26.3802 33.8118 26.4635 33.4391 26.4655V26.4637Z" fill="#FC732F"/>
</svg>
