<svg width="24" height="20" viewBox="0 0 24 20" fill="none" xmlns="http://www.w3.org/2000/svg">
<path d="M23.6678 10.8588L15.6674 19.5865C14.9531 20.3658 13.715 19.8203 13.715 18.7033V13.7161H7.23845C6.60509 13.7161 6.09554 13.1602 6.09554 12.4693V7.482C6.09554 6.79105 6.60509 6.23518 7.23845 6.23518H13.715V1.24792C13.715 0.136177 14.9484 -0.4145 15.6674 0.364759L23.6678 9.09247C24.1107 9.5808 24.1107 10.3705 23.6678 10.8588ZM9.14331 19.3267V17.2487C9.14331 16.9058 8.88616 16.6253 8.57185 16.6253H4.57166C3.72876 16.6253 3.04777 15.8824 3.04777 14.9629V4.98837C3.04777 4.06884 3.72876 3.32595 4.57166 3.32595H8.57185C8.88616 3.32595 9.14331 3.04541 9.14331 2.70254V0.624513C9.14331 0.281638 8.88616 0.00110492 8.57185 0.00110492H4.57166C2.04772 0.00110492 0 2.23498 0 4.98837V14.9629C0 17.7163 2.04772 19.9501 4.57166 19.9501H8.57185C8.88616 19.9501 9.14331 19.6696 9.14331 19.3267Z" fill="white"/>
</svg>
