<svg width="223" height="28" viewBox="0 0 223 28" fill="none" xmlns="http://www.w3.org/2000/svg">
<path d="M19.204 21.204V27H0.376V1.224H7.108V21.204H19.204ZM34.2948 0.575999C38.3028 0.575999 41.4948 1.992 43.8708 4.824C45.9108 7.296 46.9308 10.392 46.9308 14.112C46.9308 18.408 45.6108 21.816 42.9708 24.336C40.6668 26.544 37.7748 27.648 34.2948 27.648C30.2148 27.648 26.9748 26.232 24.5748 23.4C22.5108 20.952 21.4788 17.856 21.4788 14.112C21.4788 9.816 22.7508 6.456 25.2948 4.032C27.7428 1.728 30.7428 0.575999 34.2948 0.575999ZM34.2588 6.12C32.3148 6.12 30.8028 6.936 29.7227 8.568C28.7868 9.96 28.3188 11.796 28.3188 14.076C28.3188 16.74 28.9188 18.792 30.1188 20.232C31.1748 21.48 32.5668 22.104 34.2948 22.104C36.1188 22.104 37.5468 21.396 38.5788 19.98C39.6108 18.54 40.1268 16.536 40.1268 13.968C40.1268 11.352 39.5268 9.348 38.3268 7.956C37.2948 6.732 35.9388 6.12 34.2588 6.12ZM74.2671 12.996V27H69.9471C69.7071 25.896 69.5871 25.104 69.5871 24.624C69.5871 24.576 69.5871 24.516 69.5871 24.444C69.5871 24.348 69.5871 24.264 69.5871 24.192C67.7631 26.496 65.1831 27.648 61.8471 27.648C57.8871 27.648 54.7551 26.244 52.4511 23.436C50.4591 20.988 49.4631 17.904 49.4631 14.184C49.4631 9.864 50.8311 6.432 53.5671 3.888C55.9431 1.68 58.9311 0.575999 62.5311 0.575999C65.7951 0.575999 68.5071 1.56 70.6671 3.528C72.5391 5.232 73.6071 7.38 73.8711 9.972H67.3551C66.7791 7.404 65.1351 6.12 62.4231 6.12C60.4551 6.12 58.9431 6.828 57.8871 8.244C56.8311 9.636 56.3031 11.64 56.3031 14.256C56.3031 19.488 58.4391 22.104 62.7111 22.104C65.8551 22.104 67.6551 20.664 68.1111 17.784H63.4311V12.996H74.2671ZM90.3338 0.575999C94.3418 0.575999 97.5338 1.992 99.9098 4.824C101.95 7.296 102.97 10.392 102.97 14.112C102.97 18.408 101.65 21.816 99.0098 24.336C96.7058 26.544 93.8138 27.648 90.3338 27.648C86.2538 27.648 83.0138 26.232 80.6138 23.4C78.5498 20.952 77.5178 17.856 77.5178 14.112C77.5178 9.816 78.7898 6.456 81.3338 4.032C83.7818 1.728 86.7818 0.575999 90.3338 0.575999ZM90.2978 6.12C88.3538 6.12 86.8418 6.936 85.7618 8.568C84.8258 9.96 84.3578 11.796 84.3578 14.076C84.3578 16.74 84.9578 18.792 86.1578 20.232C87.2138 21.48 88.6058 22.104 90.3338 22.104C92.1578 22.104 93.5858 21.396 94.6178 19.98C95.6498 18.54 96.1658 16.536 96.1658 13.968C96.1658 11.352 95.5658 9.348 94.3658 7.956C93.3338 6.732 91.9778 6.12 90.2978 6.12Z" fill="white"/>
<path d="M113.35 1.224V27H106.618V1.224H113.35ZM118.079 1.224H128.699C132.107 1.224 134.567 1.74 136.079 2.772C138.431 4.356 139.607 6.756 139.607 9.972C139.607 12.588 138.719 14.7 136.943 16.308C135.407 17.7 133.139 18.396 130.139 18.396H124.811V27H118.079V1.224ZM124.811 6.768V13.104H129.239C131.783 13.104 133.055 12.048 133.055 9.936C133.055 7.872 131.699 6.828 128.987 6.804L124.811 6.768ZM162.663 8.964H156.255C156.159 6.852 154.779 5.796 152.115 5.796C149.787 5.796 148.623 6.552 148.623 8.064C148.623 8.76 148.935 9.264 149.559 9.576C150.087 9.84 151.779 10.332 154.635 11.052C157.347 11.748 159.315 12.48 160.539 13.248C162.651 14.544 163.707 16.488 163.707 19.08C163.707 21.912 162.591 24.096 160.359 25.632C158.415 26.976 155.859 27.648 152.691 27.648C148.851 27.648 145.923 26.724 143.907 24.876C142.131 23.268 141.219 21.084 141.171 18.324H147.939C148.083 21.06 149.751 22.428 152.943 22.428C155.559 22.428 156.867 21.552 156.867 19.8C156.867 18.984 156.519 18.384 155.823 18C155.151 17.592 153.459 17.004 150.747 16.236C147.459 15.3 145.251 14.352 144.123 13.392C142.803 12.264 142.143 10.632 142.143 8.496C142.143 5.952 143.199 3.948 145.311 2.484C147.159 1.212 149.523 0.575999 152.403 0.575999C155.835 0.575999 158.451 1.404 160.251 3.06C161.811 4.5 162.615 6.468 162.663 8.964ZM189.224 1.224V16.56C189.224 19.992 188.516 22.56 187.1 24.264C185.228 26.52 182.204 27.648 178.028 27.648C173.588 27.648 170.432 26.376 168.56 23.832C167.384 22.224 166.796 19.776 166.796 16.488V1.224H173.528V16.992C173.528 18.792 173.888 20.1 174.608 20.916C175.352 21.708 176.54 22.104 178.172 22.104C179.684 22.104 180.788 21.708 181.484 20.916C182.18 20.1 182.528 18.792 182.528 16.992V1.224H189.224ZM222.431 1.224V27H216.059V21.204C216.059 17.484 216.167 12.876 216.383 7.38C215.471 11.244 214.547 14.652 213.611 17.604L210.623 27H205.475L202.451 17.856C201.563 15.192 200.627 11.7 199.643 7.38C199.859 12.276 199.967 16.596 199.967 20.34V27H193.595V1.224H203.243L206.015 10.188C206.831 12.804 207.527 15.792 208.103 19.152C208.895 15.312 209.627 12.276 210.299 10.044L212.927 1.224H222.431Z" fill="#FC732F"/>
</svg>
