<svg width="24" height="21" viewBox="0 0 24 21" fill="none" xmlns="http://www.w3.org/2000/svg">
<path d="M0.857143 3.68182H23.1429C23.6163 3.68182 24 3.31553 24 2.86364V0.818182C24 0.36629 23.6163 0 23.1429 0H0.857143C0.383732 0 0 0.36629 0 0.818182V2.86364C0 3.31553 0.383732 3.68182 0.857143 3.68182ZM0.857143 11.8636H23.1429C23.6163 11.8636 24 11.4973 24 11.0455V9C24 8.54811 23.6163 8.18182 23.1429 8.18182H0.857143C0.383732 8.18182 0 8.54811 0 9V11.0455C0 11.4973 0.383732 11.8636 0.857143 11.8636ZM0.857143 20.0455H23.1429C23.6163 20.0455 24 19.6792 24 19.2273V17.1818C24 16.7299 23.6163 16.3636 23.1429 16.3636H0.857143C0.383732 16.3636 0 16.7299 0 17.1818V19.2273C0 19.6792 0.383732 20.0455 0.857143 20.0455Z" fill="white"/>
</svg>
